<?xml version="1.0" encoding="UTF-8"?>
<svg width="36px" height="36px" viewBox="0 0 36 36" version="1.1" xmlns="http://www.w3.org/2000/svg" xmlns:xlink="http://www.w3.org/1999/xlink">
    <title>excited-rating-empty</title>
    <g id="RatingScaleIcons" stroke="none" stroke-width="1" fill="none" fill-rule="evenodd">
        <g id="UpdatedRatingScaleIcons" transform="translate(-205.000000, -15.000000)" fill="#616161" fill-rule="nonzero">
            <g id="Group-8" transform="translate(17.000000, 15.000000)">
                <path d="M206.000263,0 C215.936565,0.0112814912 223.988716,8.0634309 224,17.9997328 C224,25.2799472 219.614508,31.8433057 212.888467,34.6293243 C206.162426,37.4153429 198.420418,35.8753628 193.272528,30.7274744 C188.124639,25.5795861 186.584657,17.837578 189.370674,11.1115368 C192.156691,4.38549556 198.720049,0 206.000263,0 Z M206.000263,1.242696 C196.745607,1.242696 189.243226,8.74507692 189.243226,17.9997328 C189.243226,27.2543887 196.745607,34.7567696 206.000263,34.7567696 C215.250552,34.7462346 222.746765,27.2500214 222.7573,17.9997328 C222.7573,8.74507692 215.254919,1.242696 206.000263,1.242696 Z M213.022828,23.0676214 C213.022828,23.0676214 213.010662,23.0917276 212.986717,23.1367257 L212.923235,23.2536258 C212.396842,24.2059685 209.822147,28.4915104 206.115399,28.4915104 C201.945308,28.4915104 199.207995,23.0676214 199.207995,23.0676214 L199.207995,23.0676214 Z M200.046847,11.3142794 C201.020467,11.3142794 201.809741,12.7505005 201.809741,14.522169 C201.809741,16.2938375 201.020467,17.7300586 200.046847,17.7300586 C199.073227,17.7300586 198.283953,16.2938375 198.283953,14.522169 C198.283953,12.7505005 199.073227,11.3142794 200.046847,11.3142794 Z M211.953629,11.3142794 C212.927248,11.3142794 213.716524,12.7504928 213.716524,14.5221607 C213.716524,16.2938286 212.927268,17.7300669 211.953629,17.7300669 C210.97999,17.7300669 210.19071,16.2938286 210.19071,14.5221607 C210.19071,12.7504928 210.97999,11.3142794 211.953629,11.3142794 Z" id="excited-rating-empty"></path>
            </g>
        </g>
    </g>
</svg>