<?xml version="1.0" encoding="UTF-8"?>
<svg width="36px" height="36px" viewBox="0 0 36 36" version="1.1" xmlns="http://www.w3.org/2000/svg" xmlns:xlink="http://www.w3.org/1999/xlink">
    <title>excited-rating-filled</title>
    <g id="RatingScaleIcons" stroke="none" stroke-width="1" fill="none" fill-rule="evenodd">
        <g id="UpdatedRatingScaleIcons" transform="translate(-205.000000, -75.000000)">
            <g id="excited-rating-filled" transform="translate(205.000000, 75.000000)">
                <circle id="Oval-Copy-4" fill="#37AD38" cx="18" cy="18" r="17"></circle>
                <path d="M18.0002631,0 C27.936565,0.0112814912 35.9887162,8.0634309 36,17.9997328 C36,25.2799472 31.6145076,31.8433057 24.888467,34.6293243 C18.1624265,37.4153429 10.420418,35.8753628 5.27252849,30.7274744 C0.124638934,25.5795861 -1.41534292,17.837578 1.37067413,11.1115368 C4.15669117,4.38549556 10.7200487,0 18.0002631,0 Z M18.0002631,1.242696 C8.74560719,1.242696 1.24322627,8.74507692 1.24322627,17.9997328 C1.24322627,27.2543887 8.74560719,34.7567696 18.0002631,34.7567696 C27.2505517,34.7462346 34.7467649,27.2500214 34.7572999,17.9997328 C34.7572999,8.74507692 27.2549189,1.242696 18.0002631,1.242696 Z M25.0228278,23.0676214 C25.0228278,23.0676214 25.0106619,23.0917276 24.9867166,23.1367257 L24.9232345,23.2536258 C24.3968424,24.2059685 21.8221473,28.4915104 18.1153992,28.4915104 C13.9453077,28.4915104 11.2079955,23.0676214 11.2079955,23.0676214 L11.2079955,23.0676214 Z M12.0468471,11.3142794 C13.0204668,11.3142794 13.8097415,12.7505005 13.8097415,14.522169 C13.8097415,16.2938375 13.0204668,17.7300586 12.0468471,17.7300586 C11.0732274,17.7300586 10.2839527,16.2938375 10.2839527,14.522169 C10.2839527,12.7505005 11.0732274,11.3142794 12.0468471,11.3142794 Z M23.9536294,11.3142794 C24.9272476,11.3142794 25.7165238,12.7504928 25.7165238,14.5221607 C25.7165238,16.2938286 24.9272683,17.7300669 23.9536294,17.7300669 C22.9799904,17.7300669 22.1907101,16.2938286 22.1907101,14.5221607 C22.1907101,12.7504928 22.9799904,11.3142794 23.9536294,11.3142794 Z" id="Combined-Shape" fill="#033C11" fill-rule="nonzero"></path>
            </g>
        </g>
    </g>
</svg>