<?xml version="1.0" encoding="UTF-8"?>
<svg width="36px" height="36px" viewBox="0 0 36 36" version="1.1" xmlns="http://www.w3.org/2000/svg" xmlns:xlink="http://www.w3.org/1999/xlink">
    <title>frustrated-rating-filled</title>
    <g id="RatingScaleIcons" stroke="none" stroke-width="1" fill="none" fill-rule="evenodd">
        <g id="UpdatedRatingScaleIcons" transform="translate(-17.000000, -75.000000)">
            <g id="frustrated-rating-filled" transform="translate(17.000000, 75.000000)">
                <circle id="Oval" fill="#D43E3F" cx="18" cy="18" r="17"></circle>
                <path d="M17.9804028,-1.13686838e-13 C27.9062228,0.0111577884 35.949939,8.05478145 35.961211,17.9806014 C35.961211,27.9109897 27.9110642,35.961211 17.9806759,35.961211 C8.0502875,35.961211 -3.55271368e-15,27.9111304 -3.55271368e-15,17.9807421 C-3.55271368e-15,8.0503537 8.05001439,-1.13686838e-13 17.9804028,-1.13686838e-13 Z M17.9806731,1.24137517 C8.73588014,1.24137517 1.24137931,8.73567325 1.24137931,17.9804662 C1.24137931,27.2252592 8.73560979,34.7198276 17.9804028,34.7198276 C27.2209651,34.7094793 34.7093715,27.2211636 34.7198317,17.9806014 C34.7198317,8.73580842 27.2254661,1.24137517 17.9806731,1.24137517 Z M17.9804028,23.0184538 C20.6227821,23.0184538 22.9907752,24.6841324 24.3150207,27.4736193 C24.4620934,27.7832797 24.33029,28.1535349 24.0206297,28.3006076 C23.7109693,28.4476803 23.340714,28.3158769 23.1936414,28.0062166 C22.0801572,25.6604483 20.1312083,24.2598538 17.980411,24.2598538 C15.7027241,24.2598538 13.9964359,25.4870897 12.764549,28.0122786 C12.6138349,28.319835 12.2425093,28.4472228 11.9347337,28.2969569 C11.6269581,28.146691 11.4990295,27.7755515 11.6488469,27.4675572 C13.0894428,24.5152221 15.219629,23.0184538 17.9804028,23.0184538 Z M25.2866639,10.0990644 L25.3678314,10.1068833 C25.4755609,10.1281565 25.5703718,10.1914829 25.6312841,10.2828497 C25.6924205,10.3739858 25.7148257,10.4856851 25.6935656,10.5933488 C25.6723054,10.7010125 25.6091235,10.795811 25.5179338,10.8568676 L25.5179338,10.8568676 L24.527549,11.5206166 C25.1857448,11.9847434 25.6532814,13.1450772 25.6532814,14.5067255 C25.6532814,16.2765103 24.86484,17.7111972 23.8922607,17.7111972 C22.9196814,17.7111972 22.13124,16.2765186 22.13124,14.5067255 C22.1284633,13.992084 22.1995078,13.4797039 22.3422041,12.9852331 L22.3422041,12.9852331 L21.899669,13.28184 C21.7098586,13.4090498 21.4528629,13.3583021 21.3256531,13.1684917 C21.1984433,12.9786814 21.249191,12.7216857 21.4390014,12.5944759 L21.4390014,12.5944759 L25.0572662,10.1694993 C25.1483362,10.1081443 25.2601019,10.0856102 25.3678314,10.1068833 Z M10.2599088,10.2833848 C10.3869098,10.0938848 10.6433335,10.0429394 10.8331283,10.1694993 L10.8331283,10.1694993 L14.4513931,12.5944759 C14.6412035,12.7216857 14.6919512,12.9786814 14.5647414,13.1684917 C14.4375315,13.3583021 14.1805359,13.4090498 13.9907255,13.28184 L13.9907255,13.28184 L13.5481903,12.9852331 C13.6908866,13.4797039 13.7619312,13.992084 13.7591545,14.5067255 C13.7591545,16.2765103 12.9707131,17.7111972 11.9981338,17.7111972 C11.0255545,17.7111972 10.2371131,16.2765186 10.2371131,14.5067255 C10.2371131,13.1450772 10.7046538,11.9847434 11.3628455,11.5206166 L11.3628455,11.5206166 L10.3724607,10.8568676 C10.1832567,10.7294262 10.1329078,10.4728847 10.2599088,10.2833848 Z" id="Combined-Shape" fill="#4B0804" fill-rule="nonzero"></path>
            </g>
        </g>
    </g>
</svg>