<?xml version="1.0" encoding="UTF-8"?>
<svg width="36px" height="36px" viewBox="0 0 36 36" version="1.1" xmlns="http://www.w3.org/2000/svg" xmlns:xlink="http://www.w3.org/1999/xlink">
    <title>happy-rating-filled</title>
    <g id="RatingScaleIcons" stroke="none" stroke-width="1" fill="none" fill-rule="evenodd">
        <g id="UpdatedRatingScaleIcons" transform="translate(-158.000000, -75.000000)">
            <g id="happy-rating-filled" transform="translate(158.000000, 75.000000)">
                <circle id="Oval-Copy-3" fill="#88D142" cx="18" cy="18" r="17"></circle>
                <path d="M17.9811311,-1.03028697e-13 C27.9068512,0.0113195588 35.9504148,8.05488127 35.9617366,17.9806014 C35.9617366,25.2530778 31.5809055,31.8094603 24.8620138,34.5925177 C18.1431221,37.3755752 10.4093425,35.8372319 5.26692446,30.6948151 C0.124506459,25.5523983 -1.41383859,17.8186189 1.36921727,11.0997266 C4.15227314,4.38083434 10.7086546,-1.03028697e-13 17.9811311,-1.03028697e-13 Z M24.3869556,2.5155729 C18.1319355,-0.0753412766 10.9320959,1.35679587 6.14471073,6.14418102 C1.35732558,10.9315662 -0.0748115656,18.1314058 2.51610261,24.3864259 C5.10701678,30.6414461 11.2107461,34.7198276 17.9811311,34.7198276 C27.221568,34.709256 34.7097858,27.2210383 34.7203573,17.9806014 C34.7203573,11.2102164 30.6419758,5.10648707 24.3869556,2.5155729 Z M23.6471049,23.7936928 C23.8092068,23.7651226 23.9760188,23.8021225 24.1108387,23.8965517 C24.2457219,23.9909249 24.3375615,24.1350423 24.3661314,24.2971643 C24.3947012,24.4592862 24.3576581,24.626116 24.2631601,24.7609117 C23.4815918,25.8773752 21.8238704,27.1968455 18.3733532,27.29148 C18.205858,27.2985766 18.0703821,27.3006455 17.9811021,27.3006455 L17.9087675,27.3002749 C17.0298672,27.2915175 13.4505849,27.1083461 11.7095504,24.7762676 C11.5044513,24.5015383 11.5608977,24.1125605 11.835627,23.9074614 C12.1103562,23.7023622 12.499334,23.7588086 12.7044332,24.0335379 C13.854509,25.573949 17.1511118,26.0592662 17.9811228,26.0592662 C18.1608207,26.0592662 18.3287214,26.0478414 18.5012194,26.0408069 C19.5261807,25.9763793 21.7172607,25.6875517 22.9331297,24.4244524 C23.0459721,24.3065142 23.1506633,24.1810385 23.2464787,24.0488938 C23.3408918,23.9140626 23.485003,23.822263 23.6471049,23.7936928 Z M12.0338856,11.3022538 C13.0064704,11.3022538 13.7949063,12.7369484 13.7949063,14.5067338 C13.7949063,16.2765192 13.0064704,17.7112138 12.0338856,17.7112138 C11.0613007,17.7112138 10.2728649,16.2765192 10.2728649,14.5067338 C10.2728649,12.7369484 11.0613007,11.3022538 12.0338856,11.3022538 Z M23.9280125,11.3022414 C24.9005973,11.3022414 25.6890332,12.7369415 25.6890332,14.5067338 C25.6890332,16.2765261 24.9005973,17.7112262 23.9280125,17.7112262 C22.9554276,17.7112262 22.1669918,16.2765261 22.1669918,14.5067338 C22.1669918,12.7369415 22.9554276,11.3022414 23.9280125,11.3022414 Z" id="Combined-Shape" fill="#2B5205" fill-rule="nonzero"></path>
            </g>
        </g>
    </g>
</svg>