<?xml version="1.0" encoding="UTF-8"?>
<svg width="36px" height="36px" viewBox="0 0 36 36" version="1.1" xmlns="http://www.w3.org/2000/svg" xmlns:xlink="http://www.w3.org/1999/xlink">
    <title>happy-rating-empty</title>
    <g id="RatingScaleIcons" stroke="none" stroke-width="1" fill="none" fill-rule="evenodd">
        <g id="UpdatedRatingScaleIcons" transform="translate(-158.000000, -15.000000)" fill="#616161" fill-rule="nonzero">
            <g id="Group-8" transform="translate(17.000000, 15.000000)">
                <path d="M158.981131,-1.03028697e-13 C168.906851,0.0113195588 176.950415,8.05488127 176.961737,17.9806014 C176.961737,25.2530778 172.580905,31.8094603 165.862014,34.5925177 C159.143122,37.3755752 151.409342,35.8372319 146.266924,30.6948151 C141.124506,25.5523983 139.586161,17.8186189 142.369217,11.0997266 C145.152273,4.38083434 151.708655,-1.03028697e-13 158.981131,-1.03028697e-13 Z M165.386956,2.5155729 C159.131935,-0.0753412766 151.932096,1.35679587 147.144711,6.14418102 C142.357326,10.9315662 140.925188,18.1314058 143.516103,24.3864259 C146.107017,30.6414461 152.210746,34.7198276 158.981131,34.7198276 C168.221568,34.709256 175.709786,27.2210383 175.720357,17.9806014 C175.720357,11.2102164 171.641976,5.10648707 165.386956,2.5155729 Z M164.647105,23.7936928 C164.809207,23.7651226 164.976019,23.8021225 165.110839,23.8965517 C165.245722,23.9909249 165.337562,24.1350423 165.366131,24.2971643 C165.394701,24.4592862 165.357658,24.626116 165.26316,24.7609117 C164.481592,25.8773752 162.82387,27.1968455 159.373353,27.29148 C159.205858,27.2985766 159.070382,27.3006455 158.981102,27.3006455 L158.908767,27.3002749 C158.029867,27.2915175 154.450585,27.1083461 152.70955,24.7762676 C152.504451,24.5015383 152.560898,24.1125605 152.835627,23.9074614 C153.110356,23.7023622 153.499334,23.7588086 153.704433,24.0335379 C154.854509,25.573949 158.151112,26.0592662 158.981123,26.0592662 C159.160821,26.0592662 159.328721,26.0478414 159.501219,26.0408069 C160.526181,25.9763793 162.717261,25.6875517 163.93313,24.4244524 C164.045972,24.3065142 164.150663,24.1810385 164.246479,24.0488938 C164.340892,23.9140626 164.485003,23.822263 164.647105,23.7936928 Z M153.033886,11.3022538 C154.00647,11.3022538 154.794906,12.7369484 154.794906,14.5067338 C154.794906,16.2765192 154.00647,17.7112138 153.033886,17.7112138 C152.061301,17.7112138 151.272865,16.2765192 151.272865,14.5067338 C151.272865,12.7369484 152.061301,11.3022538 153.033886,11.3022538 Z M164.928012,11.3022414 C165.900597,11.3022414 166.689033,12.7369415 166.689033,14.5067338 C166.689033,16.2765261 165.900597,17.7112262 164.928012,17.7112262 C163.955428,17.7112262 163.166992,16.2765261 163.166992,14.5067338 C163.166992,12.7369415 163.955428,11.3022414 164.928012,11.3022414 Z" id="happy-rating-empty"></path>
            </g>
        </g>
    </g>
</svg>