<?xml version="1.0" encoding="UTF-8"?>
<svg width="36px" height="36px" viewBox="0 0 36 36" version="1.1" xmlns="http://www.w3.org/2000/svg" xmlns:xlink="http://www.w3.org/1999/xlink">
    <title>noreaction-rating-filled</title>
    <g id="RatingScaleIcons" stroke="none" stroke-width="1" fill="none" fill-rule="evenodd">
        <g id="UpdatedRatingScaleIcons" transform="translate(-111.000000, -75.000000)">
            <g id="noreaction-rating-filled" transform="translate(111.000000, 75.000000)">
                <circle id="Oval-Copy-2" fill="#F6CF07" cx="18" cy="18" r="17"></circle>
                <path d="M17.9804069,-2.84217094e-14 C27.9062244,0.0111623438 35.9499368,8.05478401 35.961211,17.9806014 C35.961211,27.9109903 27.9110634,35.961211 17.9806745,35.961211 C8.05028558,35.961211 3.19744231e-14,27.9111282 3.19744231e-14,17.9807393 C3.19744231e-14,8.05035041 8.05001799,-2.84217094e-14 17.9804069,-2.84217094e-14 Z M17.9806717,1.24137517 C8.73587822,1.24137517 1.24137931,8.73567546 1.24137931,17.980469 C1.24137931,27.2252625 8.73561339,34.7198276 17.9804069,34.7198276 C27.2209677,34.709477 34.7093715,27.221162 34.7198317,17.9806014 C34.7198317,8.73580788 27.2254652,1.24137517 17.9806717,1.24137517 Z M23.7543145,24.5964455 C24.0971119,24.5964455 24.3750041,24.8743377 24.3750041,25.2171352 C24.3750041,25.5599326 24.0971119,25.8378248 23.7543145,25.8378248 L23.7543145,25.8378248 L12.2066979,25.8378248 C11.8639005,25.8378248 11.5860083,25.5599326 11.5860083,25.2171352 C11.5860083,24.8743377 11.8639005,24.5964455 12.2066979,24.5964455 L12.2066979,24.5964455 Z M12.0334179,11.3022538 C13.0060028,11.3022538 13.7944386,12.7369484 13.7944386,14.5067338 C13.7944386,16.2765192 13.0060028,17.7112138 12.0334179,17.7112138 C11.0608331,17.7112138 10.2723972,16.2765192 10.2723972,14.5067338 C10.2723972,12.7369484 11.0608331,11.3022538 12.0334179,11.3022538 Z M23.9275448,11.3022414 C24.9001297,11.3022414 25.6885655,12.7369415 25.6885655,14.5067338 C25.6885655,16.2765261 24.9001297,17.7112262 23.9275448,17.7112262 C22.95496,17.7112262 22.1665241,16.2765261 22.1665241,14.5067338 C22.1665241,12.7369415 22.95496,11.3022414 23.9275448,11.3022414 Z" id="Combined-Shape" fill="#554201" fill-rule="nonzero"></path>
            </g>
        </g>
    </g>
</svg>