<?xml version="1.0" encoding="UTF-8"?>
<svg width="36px" height="36px" viewBox="0 0 36 36" version="1.1" xmlns="http://www.w3.org/2000/svg" xmlns:xlink="http://www.w3.org/1999/xlink">
    <title>noreaction-rating-empty</title>
    <g id="RatingScaleIcons" stroke="none" stroke-width="1" fill="none" fill-rule="evenodd">
        <g id="UpdatedRatingScaleIcons" transform="translate(-111.000000, -15.000000)" fill="#616161" fill-rule="nonzero">
            <g id="Group-8" transform="translate(17.000000, 15.000000)">
                <path d="M111.980407,-2.84217094e-14 C121.906224,0.0111623438 129.949937,8.05478401 129.961211,17.9806014 C129.961211,27.9109903 121.911063,35.961211 111.980674,35.961211 C102.050286,35.961211 94,27.9111282 94,17.9807393 C94,8.05035041 102.050018,-2.84217094e-14 111.980407,-2.84217094e-14 Z M111.980672,1.24137517 C102.735878,1.24137517 95.2413793,8.73567546 95.2413793,17.980469 C95.2413793,27.2252625 102.735613,34.7198276 111.980407,34.7198276 C121.220968,34.709477 128.709371,27.221162 128.719832,17.9806014 C128.719832,8.73580788 121.225465,1.24137517 111.980672,1.24137517 Z M117.754314,24.5964455 C118.097112,24.5964455 118.375004,24.8743377 118.375004,25.2171352 C118.375004,25.5599326 118.097112,25.8378248 117.754314,25.8378248 L117.754314,25.8378248 L106.206698,25.8378248 C105.8639,25.8378248 105.586008,25.5599326 105.586008,25.2171352 C105.586008,24.8743377 105.8639,24.5964455 106.206698,24.5964455 L106.206698,24.5964455 Z M106.033418,11.3022538 C107.006003,11.3022538 107.794439,12.7369484 107.794439,14.5067338 C107.794439,16.2765192 107.006003,17.7112138 106.033418,17.7112138 C105.060833,17.7112138 104.272397,16.2765192 104.272397,14.5067338 C104.272397,12.7369484 105.060833,11.3022538 106.033418,11.3022538 Z M117.927545,11.3022414 C118.90013,11.3022414 119.688566,12.7369415 119.688566,14.5067338 C119.688566,16.2765261 118.90013,17.7112262 117.927545,17.7112262 C116.95496,17.7112262 116.166524,16.2765261 116.166524,14.5067338 C116.166524,12.7369415 116.95496,11.3022414 117.927545,11.3022414 Z" id="noreaction-rating-empty"></path>
            </g>
        </g>
    </g>
</svg>