<?xml version="1.0" encoding="UTF-8"?>
<svg width="36px" height="36px" viewBox="0 0 36 36" version="1.1" xmlns="http://www.w3.org/2000/svg" xmlns:xlink="http://www.w3.org/1999/xlink">
    <title>sad-rating-empty</title>
    <g id="RatingScaleIcons" stroke="none" stroke-width="1" fill="none" fill-rule="evenodd">
        <g id="UpdatedRatingScaleIcons" transform="translate(-64.000000, -15.000000)" fill="#616161" fill-rule="nonzero">
            <g id="Group-8" transform="translate(17.000000, 15.000000)">
                <path d="M64.9804028,-1.13686838e-13 C74.9062228,0.0111577884 82.949939,8.05478145 82.961211,17.9806014 C82.961211,27.9109897 74.9110642,35.961211 64.9806759,35.961211 C55.0502875,35.961211 47,27.9111304 47,17.9807421 C47,8.0503537 55.0500144,-1.13686838e-13 64.9804028,-1.13686838e-13 Z M64.9806731,1.24137517 C55.7358801,1.24137517 48.2413793,8.73567325 48.2413793,17.9804662 C48.2413793,27.2252592 55.7356098,34.7198276 64.9804028,34.7198276 C74.2209651,34.7094793 81.7093715,27.2211636 81.7198317,17.9806014 C81.7198317,8.73580842 74.2254661,1.24137517 64.9806731,1.24137517 Z M64.8894841,22.1278303 L64.9804028,22.1282441 L65.0761752,22.1278303 C66.1185366,22.131869 68.5524097,22.112069 71.2509241,25.7105338 C71.3840324,25.8879635 71.412372,26.1229277 71.3252675,26.3269177 C71.238163,26.5309077 71.0488478,26.6729325 70.8286351,26.6994928 C70.6084223,26.7260532 70.3907676,26.6331138 70.2576593,26.4556841 C68.0628186,23.52846 66.2188675,23.3781088 65.244606,23.3697406 L64.8046388,23.3696527 C63.8562278,23.3758561 61.9631174,23.4423732 59.7033283,26.4556841 C59.4975607,26.7299666 59.1084032,26.785509 58.8341207,26.5797414 C58.5598382,26.3739738 58.5042959,25.9848163 58.7100634,25.7105338 C61.280491,22.2830382 63.6075482,22.1333883 64.7302342,22.1279554 L64.8894841,22.1278303 Z M59.0334179,11.3022538 C60.0060028,11.3022538 60.7944386,12.7369484 60.7944386,14.5067338 C60.7944386,16.2765192 60.0060028,17.7112138 59.0334179,17.7112138 C58.0608331,17.7112138 57.2723972,16.2765192 57.2723972,14.5067338 C57.2723972,12.7369484 58.0608331,11.3022538 59.0334179,11.3022538 Z M70.9275448,11.3022414 C71.9001297,11.3022414 72.6885655,12.7369415 72.6885655,14.5067338 C72.6885655,16.2765261 71.9001297,17.7112262 70.9275448,17.7112262 C69.95496,17.7112262 69.1665241,16.2765261 69.1665241,14.5067338 C69.1665241,12.7369415 69.95496,11.3022414 70.9275448,11.3022414 Z" id="sad-rating-empty"></path>
            </g>
        </g>
    </g>
</svg>