<?xml version="1.0" encoding="UTF-8"?>
<svg width="36px" height="36px" viewBox="0 0 36 36" version="1.1" xmlns="http://www.w3.org/2000/svg" xmlns:xlink="http://www.w3.org/1999/xlink">
    <title>sad-rating-filled</title>
    <g id="RatingScaleIcons" stroke="none" stroke-width="1" fill="none" fill-rule="evenodd">
        <g id="UpdatedRatingScaleIcons" transform="translate(-64.000000, -75.000000)">
            <g id="sad-rating-filled" transform="translate(64.000000, 75.000000)">
                <circle id="Oval-Copy" fill="#EE8844" cx="18" cy="18" r="17"></circle>
                <path d="M17.9804028,-1.13686838e-13 C27.9062228,0.0111577884 35.949939,8.05478145 35.961211,17.9806014 C35.961211,27.9109897 27.9110642,35.961211 17.9806759,35.961211 C8.0502875,35.961211 1.42108547e-14,27.9111304 1.42108547e-14,17.9807421 C1.42108547e-14,8.0503537 8.05001439,-1.13686838e-13 17.9804028,-1.13686838e-13 Z M17.9806731,1.24137517 C8.73588014,1.24137517 1.24137931,8.73567325 1.24137931,17.9804662 C1.24137931,27.2252592 8.73560979,34.7198276 17.9804028,34.7198276 C27.2209651,34.7094793 34.7093715,27.2211636 34.7198317,17.9806014 C34.7198317,8.73580842 27.2254661,1.24137517 17.9806731,1.24137517 Z M17.8894841,22.1278303 L17.9804028,22.1282441 L18.0761752,22.1278303 C19.1185366,22.131869 21.5524097,22.112069 24.2509241,25.7105338 C24.3840324,25.8879635 24.412372,26.1229277 24.3252675,26.3269177 C24.238163,26.5309077 24.0488478,26.6729325 23.8286351,26.6994928 C23.6084223,26.7260532 23.3907676,26.6331138 23.2576593,26.4556841 C21.0628186,23.52846 19.2188675,23.3781088 18.244606,23.3697406 L17.8046388,23.3696527 C16.8562278,23.3758561 14.9631174,23.4423732 12.7033283,26.4556841 C12.4975607,26.7299666 12.1084032,26.785509 11.8341207,26.5797414 C11.5598382,26.3739738 11.5042959,25.9848163 11.7100634,25.7105338 C14.280491,22.2830382 16.6075482,22.1333883 17.7302342,22.1279554 L17.8894841,22.1278303 Z M12.0334179,11.3022538 C13.0060028,11.3022538 13.7944386,12.7369484 13.7944386,14.5067338 C13.7944386,16.2765192 13.0060028,17.7112138 12.0334179,17.7112138 C11.0608331,17.7112138 10.2723972,16.2765192 10.2723972,14.5067338 C10.2723972,12.7369484 11.0608331,11.3022538 12.0334179,11.3022538 Z M23.9275448,11.3022414 C24.9001297,11.3022414 25.6885655,12.7369415 25.6885655,14.5067338 C25.6885655,16.2765261 24.9001297,17.7112262 23.9275448,17.7112262 C22.95496,17.7112262 22.1665241,16.2765261 22.1665241,14.5067338 C22.1665241,12.7369415 22.95496,11.3022414 23.9275448,11.3022414 Z" id="Combined-Shape" fill="#5C2A08" fill-rule="nonzero"></path>
            </g>
        </g>
    </g>
</svg>